<?xml version="1.0" standalone="no"?>
<!DOCTYPE svg PUBLIC "-//W3C//DTD SVG 20010904//EN"
 "http://www.w3.org/TR/2001/REC-SVG-20010904/DTD/svg10.dtd">
<svg version="1.0" xmlns="http://www.w3.org/2000/svg"
 width="100.000000pt" height="100.000000pt" viewBox="0 0 100.000000 100.000000"
 preserveAspectRatio="xMidYMid meet">
<metadata>
Created by potrace 1.14, written by Peter Selinger 2001-2017
</metadata>
<g transform="translate(0.000000,100.000000) scale(0.100000,-0.100000)"
fill="#000000" stroke="none">
<path d="M245 984 c-106 -55 -147 -169 -141 -391 2 -72 6 -135 9 -140 3 -4 8
-33 11 -63 17 -160 48 -276 89 -332 21 -28 82 -58 119 -58 21 0 20 2 -8 32
-16 18 -38 51 -48 72 -20 46 -52 193 -62 286 -3 36 -8 69 -11 73 -11 19 -10
257 2 313 17 80 55 153 100 192 l36 32 -33 0 c-18 0 -46 -7 -63 -16z"/>
<path d="M410 983 c-93 -32 -147 -104 -169 -223 -21 -114 8 -424 55 -587 30
-106 83 -161 143 -148 34 7 94 61 156 140 26 33 64 80 83 104 227 276 237 293
236 401 0 56 -6 85 -22 116 -32 63 -103 119 -192 153 -138 54 -225 67 -290 44z
m-1 -307 c23 -70 51 -214 51 -260 -1 -54 -58 -156 -89 -156 -12 0 -27 46 -45
140 -20 100 -15 281 7 334 17 38 18 38 37 21 10 -9 28 -45 39 -79z m340 49
c21 -21 26 -35 26 -76 0 -45 -4 -54 -33 -80 -20 -18 -43 -29 -62 -29 -19 0
-42 11 -62 29 -29 26 -33 35 -33 81 0 46 4 55 34 82 28 25 39 29 69 24 20 -3
47 -17 61 -31z"/>
</g>
</svg>
